<svg width="282" height="259" viewBox="0 0 282 259" fill="none" xmlns="http://www.w3.org/2000/svg">
<g clip-path="url(#clip0_31_155)">
<path d="M105.44 205.55C104.62 202.58 103.9 199.64 103.01 196.75C98.93 183.53 93.45 170.89 87.04 158.65C85.82 156.32 84.48 154.06 83.37 151.69C82.72 150.3 82.13 150.03 80.6 150.61C71.29 154.16 61.8 157.14 51.9 158.6C43.27 159.88 35.01 158.92 27.75 153.7C22.32 149.8 18.96 144.29 16.68 138.08C13.11 128.39 11.33 118.3 10.07 108.1C8.77 97.55 7.71 86.97 6.37 76.43C5.33 68.24 3.74 60.16 0.490004 52.5C0.310004 52.09 0.240004 51.63 0.020004 50.83C1.55 51.28 2.74 51.66 3.95 51.98C19.36 56.03 34.77 60.04 50.17 64.11C58.38 66.28 66.47 68.79 74.14 72.53C87.47 79.04 95.24 89.69 98.13 104.12C99.57 111.34 100.62 118.57 100 125.96C99.9 127.17 99.69 128.37 99.47 130.08C76.67 102.05 47.47 83.04 16.85 65.87C16.75 66 16.64 66.14 16.54 66.27C18.77 67.91 21.01 69.53 23.23 71.2C46.93 89.01 68.14 109.33 85.82 133.21C100.66 153.25 111.73 175.11 117.97 199.34C119.02 203.41 119.09 203.34 123.39 203.01C124.61 202.92 125.34 202.75 125.66 201.33C131.79 173.5 142.7 147.68 158.15 123.73C170.19 105.07 183.79 87.69 199.36 71.84C216.8 54.09 235.48 37.79 255.53 23.06C256.98 21.99 258.44 20.93 259.9 19.86L259.63 19.44C256.48 21.2 253.28 22.86 250.2 24.74C238.94 31.61 227.54 38.29 216.52 45.54C203.13 54.36 190.68 64.45 178.56 74.96C169.42 82.88 161.14 91.58 153.44 100.88C153.03 101.37 152.59 101.85 151.84 102.71C151.62 100.54 151.43 98.82 151.29 97.1C150.16 84.04 152.12 71.29 156.32 59.02C161.45 44.01 171.97 33.67 186.32 27.06C196.52 22.36 207.22 19.21 218.05 16.46C234.49 12.29 250.97 8.29003 267.4 4.09003C271.54 3.03003 275.62 1.76003 279.68 0.450031C280.1 0.310031 280.43 0.250031 281.28 0.0300307C281.04 0.880031 280.92 1.50003 280.69 2.07003C276.17 13.38 274.07 25.23 272.71 37.27C271.7 46.17 270.66 55.06 269.43 63.93C267.9 74.91 266.4 85.91 264.36 96.81C262.58 106.32 259.49 115.48 254.13 123.69C246.8 134.92 236.25 140.22 223 140.63C211.36 140.99 200.45 137.5 189.5 134.32C184.82 132.96 180.26 131.19 175.66 129.56C174.7 129.22 174.08 129.08 173.45 130.21C167.18 141.54 161.3 153.06 156.32 165.03C151.27 177.16 146.86 189.5 143.97 202.35C143.46 204.59 143.43 204.59 145.75 205.03" fill="#158764"/>
<path d="M102.19 195.54C89.45 199.6 79.21 207.91 76.78 221.78C76.47 221.8 76.17 221.86 75.88 221.83C67 221.05 58.3 222.12 49.76 224.5C38.41 227.67 28.74 233.36 22.1 243.42C19.12 247.93 17.19 252.89 15.9 258.23C16.43 258.31 16.78 258.41 17.13 258.41C21.41 258.43 25.69 258.44 29.97 258.44C88.63 258.44 147.3 258.44 205.96 258.44C218.44 258.44 230.92 258.42 243.4 258.47C245.02 258.47 245.78 257.99 245.65 256.27C245.45 253.65 245.56 251 245.19 248.41C244.07 240.53 240.47 234.21 233.2 230.4C229.61 228.52 225.69 227.78 221.72 227.54C213.05 227.03 205.27 229.3 199.47 236.07C197.13 238.79 195.54 242.16 193.7 245.1C193.7 245.1 193.57 244.66 193.46 244.21C189.67 227.94 181.03 215.02 166.92 205.92C159.17 200.92 150.62 197.94 141.59 196.22C139.27 195.78 127.34 193.6 119.86 193.6C112.38 193.6 102.19 195.53 102.19 195.53L102.19 195.54Z" fill="#158764"/>
</g>
<defs>
<clipPath id="clip0_31_155">
<rect width="281.25" height="258.47" fill="white"/>
</clipPath>
</defs>
</svg>
