<?xml version="1.0" encoding="UTF-8"?>
<svg id="Layer_2" data-name="Layer 2" xmlns="http://www.w3.org/2000/svg" viewBox="0 0 1213.27 1150.23">
  <defs>
    <style>
      .cls-1 {
        font-family: Heavitas, Heavitas;
        font-size: 25.05px;
      }

      .cls-1, .cls-2 {
        fill: #1b8464;
      }

      .cls-3 {
        fill: #fff;
      }

      .cls-4 {
        fill: #735a3e;
      }

      .cls-5 {
        fill: #e0e0de;
      }

      .cls-6 {
        fill: #c6c4c4;
      }

      .cls-7 {
        fill: #554842;
      }
    </style>
  </defs>
  <g id="Layer_1-2" data-name="Layer 1">
    <g>
      <g>
        <path class="cls-3" d="m1213.24,1033.4c.58,22.76-9.54,39.3-27.42,49.62-20.49,10.7-78.9,65.18-103.99,61.5-97.4-7.19-298.53-326.57-361.85-432.01-4.25,16.57-23.64,378.68-39.91,380.83-68.9,76.98-414.98,59.68-531.71,40.71-34.89-7.17-72.23-13.34-93.68-41.01-15.93,4.95-50.1-549.79-54.69-562.56,5.98-53.93,50.29-57.44,91.94-68.27,29-23.97,73.66-37.63,112.14-40.12,7.1-13.3,16.68-25.12,28.49-35.14-107.98,6.46-115.14-109.88-122.86-188.05-3.69-23.08-15.81-60.81-24.6-90.89-3.41-11.67,7.4-22.5,19.06-19.06,29.96,8.85,70.86,20.71,87.92,24.82,105.01,22.64,186.7,52.96,174.72,180.81,2.74-5.27,5.57-10.5,8.48-15.7-23.59-159.69,39.71-218.68,190.65-247.65,33.23-8.12,77.97-20.51,116.73-30.61,14.4-3.75,27.35,9.71,23.03,23.94-10.94,35.99-24.48,75.26-27.44,110.97-3.98,34.21-8.38,68.11-14.61,102.63-15.85,98.04-95.83,137.22-184.97,104.49-5.88,11.97-10.55,22.32-15.09,33.74,33.19,15.53,62.6,40.68,81.84,70.55,43.78-19.67,101.61-12.63,134.36,25.05,12.6,4.35,22.17,9.05,31,15.66l2.6-1.81,39.85-27.63s.02-.02.05-.02c81.4-65.41,224.6,172,293.16,259.11,70.31,110.44,147.59,206.92,166.82,316.08Z"/>
        <g>
          <path class="cls-6" d="m689.28,521.72v.02c0,1.65-.69,3.26-2.08,4.89-18.14,21.52-154.29,38.22-319.54,38.22-104.15,0-196.73-6.63-255.51-16.92-34.46-6.04-57.28-13.33-63.99-21.29-.93-1.06-1.54-2.13-1.84-3.19-.17-.59-.26-1.15-.26-1.72,0-9.53,23.09-18.33,62.21-25.45,58.54-10.68,152.93-17.63,259.4-17.63,177.64,0,321.62,19.3,321.62,43.08Z"/>
          <path class="cls-2" d="m332.9,417.36c-1.47-5.36-2.78-10.67-4.39-15.88-7.36-23.84-17.24-46.64-28.8-68.72-2.2-4.19-4.62-8.28-6.63-12.56-1.18-2.51-2.24-2.99-4.99-1.94-16.79,6.41-33.91,11.77-51.76,14.41-15.56,2.3-30.46.57-43.56-8.84-9.8-7.04-15.85-16.98-19.97-28.17-6.44-17.48-9.66-35.68-11.92-54.07-2.34-19.03-4.26-38.1-6.68-57.12-1.88-14.77-4.75-29.35-10.61-43.17-.32-.75-.45-1.57-.85-3.01,2.76.81,4.9,1.5,7.08,2.07,27.78,7.3,55.58,14.54,83.36,21.87,14.81,3.91,29.4,8.44,43.24,15.19,24.04,11.74,38.05,30.95,43.26,56.97,2.61,13.02,4.49,26.07,3.38,39.39-.18,2.18-.55,4.34-.96,7.43-41.13-50.55-93.79-84.84-149.02-115.8-.19.24-.37.49-.56.73,4.02,2.96,8.07,5.89,12.06,8.89,42.75,32.11,80.99,68.77,112.89,111.84,26.76,36.14,46.74,75.58,57.98,119.26,1.89,7.34,2.02,7.21,9.77,6.62,2.2-.17,3.52-.46,4.09-3.03,11.05-50.2,30.73-96.77,58.61-139.96,21.72-33.65,46.24-65,74.33-93.59,31.45-32.02,65.14-61.41,101.31-87.98,2.62-1.93,5.26-3.85,7.88-5.77-.16-.25-.33-.5-.49-.76-5.67,3.18-11.46,6.18-17,9.56-20.32,12.39-40.87,24.43-60.74,37.51-24.15,15.9-46.6,34.11-68.46,53.06-16.48,14.29-31.42,29.98-45.31,46.74-.74.89-1.52,1.75-2.88,3.29-.39-3.91-.73-7.01-1-10.13-2.04-23.56,1.5-46.54,9.07-68.67,9.26-27.07,28.22-45.72,54.1-57.64,18.39-8.47,37.69-14.16,57.23-19.12,28.28-7.17,56.62-14.07,84.89-21.26,8.95-2.28,17.76-5.13,26.64-7.72.61-.18,1.24-.32,2.52-.65-.44,1.54-.65,2.65-1.07,3.68-7.87,19.7-11.68,40.34-14.15,61.29-1.93,16.41-3.74,32.84-6.03,49.2-2.82,20.17-5.55,40.37-9.29,60.38-3.21,17.15-8.78,33.67-18.46,48.48-13.23,20.25-32.24,29.81-56.15,30.55-21,.65-40.66-5.64-60.42-11.37-8.44-2.45-16.67-5.65-24.97-8.59-1.74-.62-2.85-.87-3.98,1.17-11.3,20.44-21.92,41.21-30.9,62.8-9.11,21.89-17.06,44.14-22.28,67.31-.91,4.05-.98,4.03,3.21,4.83"/>
          <path class="cls-4" d="m299.6,392.16c-32.07,10.22-57.86,31.16-63.98,66.07-.79.05-1.54.2-2.27.13-22.36-1.96-44.26.72-65.77,6.73-28.58,7.98-52.93,22.31-69.65,47.64-7.5,11.36-12.37,23.84-15.61,37.29,1.32.2,2.2.45,3.09.45,10.78.05,21.56.08,32.34.08,147.71,0,295.42,0,443.14,0,31.42,0,62.84-.04,94.26.07,4.08.01,5.99-1.2,5.66-5.54-.51-6.59-.23-13.27-1.15-19.79-2.82-19.84-11.88-35.75-30.19-45.34-9.03-4.73-18.9-6.6-28.91-7.19-21.84-1.29-41.41,4.44-56.02,21.47-5.88,6.86-9.88,15.33-14.53,22.72,0-.02-.33-1.12-.59-2.24-9.54-40.97-31.29-73.5-66.83-96.42-19.53-12.59-41.05-20.09-63.78-24.41-5.85-1.11-35.87-6.6-54.7-6.6s-44.48,4.87-44.48,4.87Z"/>
          <path class="cls-6" d="m80.66,532.38l41.14,540.91c-16.09-4.66-26.79-9.84-30.79-15.36-.79-1.09-1.33-2.15-1.58-3.21-.16-.57-.23-1.13-.23-1.7,0-.38.05-.79.11-1.18l-44.55-530.1c8.26,3.78,20.41,7.35,35.91,10.63Z"/>
          <path class="cls-6" d="m645.65,1052.02c.05.34.07.66.07,1,0,1.67-.59,3.28-1.81,4.91-15.68,21.52-133.47,38.19-276.45,38.19-33.58,0-65.78-.93-95.57-2.6-11.77-.68-23.17-1.47-34.12-2.35l-41.38-543.99c10.54.79,21.47,1.54,32.72,2.19,42.24,2.47,89.17,3.85,138.61,3.85,153.09,0,282.24-13.19,322.43-31.22h.02l-44.51,530.03Z"/>
          <g>
            <circle class="cls-7" cx="371.78" cy="622.59" r="9.66"/>
            <circle class="cls-7" cx="369.5" cy="670" r="9.66"/>
            <circle class="cls-7" cx="395.3" cy="645.78" r="9.66"/>
            <path class="cls-2" d="m514.95,706.45c-19.23,14.78-9.2,52.05-42.52,49.72-16.54,3.27-11.68,25.32-11.59,39.99.21,34.79-2.03,74.35-41.34,92.48-2.45,1.13-6.31,3.32-6.31,3.32,0,0-1.09,11.6-1.43,16.14-2.4,18.64-6.9,37.04-14.52,54.22-15.36,45.73-79.33,65.5-114.62,30.29-31.17-34.87-2.73-87.02,33.6-98.31,18.96-6.51,28.59-8.92,38.81-12.02,2.1-.63,17.58-4.23,17.69-6.53.18-7.52,1.75-14.77,1.17-22.38-10.56,20.52-40.02,26.51-61.2,24.97-48.39-10.17-62.46-52.06-64.65-89.74-1.39-33.8,10.23-69.84,39.11-89.62,27.84-19.81,69.53-11.35,85.65,19.35-.66-22.17,23.2-40.15,41.71-23.83,4.14,22.22-.56,123.09-.18,156.9.04,3.98-.22,9.85.1,11.62,59.33-23.7,21.17-91.72,57.74-124.69,8.26-5.58,15.36-9.08,20.46-17.44-13.39,13.37-25.74,10.92-34.73,31.67-4.37-22.25-.61-41.41,25.67-42.17,9.38.59,23.44-4.02,31.39-3.94Zm-176.43,266.67c12-5.03,18.43-16.53,23.07-27.97,3.43-6.46,5.17-14.3,6.46-21.44.7-5.07,2.66-12.7,2.97-17.43-18,7.58-37.69,14.11-53.22,26.28-26.98,18.78-11.53,55.85,20.72,40.56Zm-40.14-151.78c3.59,6.49,8.43,11.73,15.07,15.24,6.26,3.31,12.87,3.97,19.85,3.27,12.37-1.25,20.49-8.11,25.73-18.83,4.56-9.35,5.93-19.47,6.32-29.73.37-9.87-.2-19.68-2.58-29.33-1.89-7.66-4.86-14.9-10.71-20.29-8.38-7.72-18.72-10.24-29.76-8.22-12.7,2.33-21.2,10.36-26.11,22.03-4.09,9.73-5.83,19.99-5.23,30.22-.44,12.73,1.35,24.64,7.44,35.63Z"/>
          </g>
          <path class="cls-6" d="m1165.37,1034.54l-79.61,55.21c-3.38,2.35-9.24.93-17.16-3.85v-.02c-37.73-22.74-122.17-121.35-209.42-247.15-28.17-40.63-53.78-79.97-75.83-116.09-23.25-38.09-42.53-72.6-56.65-101.22-.75-1.52-1.47-3-2.18-4.49-12.88-26.56-21.06-47.71-23.52-61.51-1.57-8.77-.83-14.54,2.5-16.85l78.22-54.25c-.69.87-1.21,1.99-1.53,3.4-2.56,10.28,5.02,34,20.53,66.96,26.47,56.24,76.04,139.35,137.94,228.59,98.21,141.6,192.84,248.76,221.3,252.04,2.16.26,3.9-.06,5.25-1l.15.22Z"/>
          <path class="cls-5" d="m237.76,1091.17c-31.11-2.53-58.74-5.97-81.46-10.07-13.26-2.38-24.84-5-34.51-7.81l-41.14-540.91c9.73,2.08,20.75,4.05,32.97,5.86,23.6,3.51,51.54,6.54,82.75,8.94l41.38,543.99Z"/>
          <path class="cls-6" d="m1165.23,1034.31h-.02c-1.36.95-3.09,1.27-5.25,1.01-28.46-3.28-123.1-110.43-221.3-252.04-61.89-89.25-111.47-172.36-137.94-228.59-15.51-32.97-23.09-56.68-20.53-66.96.32-1.41.83-2.53,1.53-3.4.38-.48.79-.88,1.26-1.2,7.83-5.43,28.78,9.34,57.89,38.8,43.57,44.08,105.36,121,168.64,212.23,105.57,152.22,175.28,286.6,155.74,300.15Z"/>
          <path class="cls-5" d="m724.52,616.93c-12.88-26.56-21.06-47.71-23.52-61.51-1.57-8.77-.83-14.54,2.5-16.85l78.22-54.25c-.69.87-1.21,1.99-1.53,3.4-2.56,10.28,5.02,34,20.53,66.96l-76.2,62.24Z"/>
        </g>
      </g>
      <text class="cls-1" transform="translate(675.31 1015.34) rotate(-85.04)"><tspan x="0" y="0">w</tspan></text>
      <text class="cls-1" transform="translate(677.79 986.84) rotate(-85.13)"><tspan x="0" y="0">w</tspan></text>
      <text class="cls-1" transform="translate(680.22 958.34) rotate(-85.3)"><tspan x="0" y="0">w</tspan></text>
      <text class="cls-1" transform="translate(682.4 931.65) rotate(-85.43)"><tspan x="0" y="0">.</tspan></text>
      <text class="cls-1" transform="translate(682.87 925.88) rotate(-85.57)"><tspan x="0" y="0">g</tspan></text>
      <text class="cls-1" transform="translate(684.5 904.88) rotate(-85.8)"><tspan x="0" y="0">o</tspan></text>
      <text class="cls-1" transform="translate(686.02 884.21) rotate(-86.04)"><tspan x="0" y="0">o</tspan></text>
      <text class="cls-1" transform="translate(687.44 863.53) rotate(-86.21)"><tspan x="0" y="0">i</tspan></text>
      <text class="cls-1" transform="translate(688 855.05) rotate(-86.29)"><tspan x="0" y="0">.</tspan></text>
      <text class="cls-1" transform="translate(688.39 849.23) rotate(-86.43)"><tspan x="0" y="0">m</tspan></text>
      <text class="cls-1" transform="translate(689.9 824.89) rotate(-86.6)"><tspan x="0" y="0">e</tspan></text>
    </g>
  </g>
</svg>