<svg width="45" height="48" viewBox="0 0 45 48" fill="none" xmlns="http://www.w3.org/2000/svg">
<path d="M0.0051004 23.9463C-0.245241 10.8758 9.83313 1.41093 19.0055 0.397035C26.2552 -0.403799 32.5972 1.6038 37.8118 7.22433C41.3472 11.0338 43.4419 15.6717 43.9 21.0093C45.4242 38.8113 32.7113 47.8556 22.151 47.9162C10.1942 47.9842 -0.260568 37.184 0.0051004 23.9463ZM22.5392 37.9536C22.5392 37.9536 22.5392 37.9664 22.5392 37.9719C24.2797 37.9719 26.0202 37.9627 27.7606 37.9738C32.2004 38.0032 35.6455 34.4104 35.7648 29.4456C35.855 25.7372 35.9248 22.014 35.7477 18.3129C35.5008 13.1553 32.7249 10.1742 28.1881 9.84173C24.5318 9.57356 20.8448 9.79581 17.1697 9.78846C13.6513 9.78112 9.83994 13.4289 9.71562 17.176C9.56917 21.553 9.59812 25.9264 9.69008 30.3034C9.71903 31.7177 10.1618 32.9777 10.9111 34.1018C12.4013 36.3372 14.2729 37.9223 16.9704 37.9499C18.8267 37.9683 20.683 37.9536 22.5392 37.9536Z" fill="#0C4B3B"/>
<path d="M12.1288 23.5991C12.1288 21.7219 12.1867 19.8429 12.1152 17.9694C12.0079 15.1444 14.7565 12.5417 17.0045 12.5031C20.717 12.4388 24.4449 12.257 28.1387 12.5343C31.3523 12.775 33.1353 14.7973 33.246 18.3753C33.3601 22.0415 33.2886 25.7169 33.2648 29.3868C33.2443 32.7389 31.0015 35.2277 27.9054 35.2699C24.4245 35.3177 20.9435 35.2424 17.4626 35.2938C14.7242 35.3342 12.0556 32.6727 12.1118 29.4823C12.1458 27.5224 12.1186 25.5608 12.1186 23.6009C12.122 23.6009 12.1254 23.6009 12.1271 23.6009L12.1288 23.5991ZM29.0635 23.8875C29.416 19.6996 25.9793 16.9353 22.8747 16.9683C18.9646 17.0087 16.4255 20.1588 16.2943 23.9095C16.1751 27.3369 19.2882 30.9039 22.6891 30.9701C26.2603 31.0398 29.0618 27.8733 29.0618 23.8893L29.0635 23.8875ZM29.697 14.9699C28.556 14.9166 28.1336 15.543 28.103 16.5679C28.0791 17.3853 28.8063 18.2357 29.4756 18.2063C30.3935 18.1659 31.1343 17.4128 31.1496 16.5036C31.165 15.5338 30.5842 14.9626 29.6987 14.9681L29.697 14.9699Z" fill="#0C4B3B"/>
<path d="M26.7372 23.8636C26.7389 26.4149 24.9797 28.5253 22.7181 28.4519C20.8686 28.3913 18.7058 26.5306 18.6206 23.9095C18.5457 21.6172 20.5655 19.3966 22.7368 19.4829C24.8451 19.5656 26.916 20.9615 26.7354 23.8654L26.7372 23.8636Z" fill="#0C4B3B"/>
</svg>
