<svg width="73" height="94" viewBox="0 0 73 94" fill="none" xmlns="http://www.w3.org/2000/svg">
<path d="M72.3552 0.163989C70.0911 0.819976 67.8419 1.54305 65.5553 2.1245C58.3355 3.95082 51.1008 5.70261 43.881 7.52148C38.8954 8.78128 33.9622 10.2274 29.269 12.3743C22.664 15.4008 17.8208 20.1343 15.4592 27.0073C13.5249 32.6279 12.6253 38.4572 13.1426 44.4431C13.21 45.2333 13.3 46.0235 13.3975 47.0149C13.7423 46.6198 13.9448 46.4036 14.1322 46.18C17.6784 41.9235 21.4944 37.9429 25.7003 34.3126C31.2782 29.5045 37.0136 24.8828 43.1762 20.8425C48.2518 17.5253 53.4999 14.469 58.6804 11.3232C60.0974 10.466 61.5743 9.70562 63.0213 8.89309C63.0662 8.96018 63.1037 9.01982 63.1487 9.08691C62.4815 9.57144 61.8067 10.0634 61.1395 10.548C51.903 17.2942 43.3037 24.7561 35.2742 32.8814C28.0994 40.1419 21.8393 48.0958 16.2989 56.6385C9.18405 67.604 4.15345 79.4266 1.33451 92.1662C1.19206 92.8222 0.854688 92.8967 0.2924 92.934C0.194937 92.9415 0.0974734 92.9489 0.00750732 92.9564V93.9925L10.586 93.8509C9.51393 93.6496 9.52892 93.6496 9.76883 92.6284C11.1033 86.7469 13.1351 81.0964 15.4592 75.5429C17.7533 70.0639 20.4598 64.7936 23.3462 59.5979C23.6311 59.0836 23.916 59.1432 24.3658 59.2998C26.4875 60.0452 28.5867 60.8577 30.7384 61.4839C35.784 62.9375 40.7996 64.5327 46.1676 64.3687C52.2703 64.1824 57.1285 61.7522 60.5022 56.6162C62.9763 52.8591 64.3932 48.6623 65.2179 44.309C66.1701 39.2325 66.8673 34.1039 67.587 28.9827C68.1718 24.8306 68.6292 20.6561 69.124 16.4966C69.7537 11.1741 70.7284 5.94115 72.7376 0.939246C72.8426 0.678342 72.895 0.395075 73.0075 0.00744629C72.6776 0.0894447 72.5202 0.126717 72.3627 0.171443L72.3552 0.163989Z" fill="#0F8965"/>
</svg>
