<svg width="45" height="49" viewBox="0 0 45 49" fill="none" xmlns="http://www.w3.org/2000/svg">
<path d="M0.870074 24.513C0.631654 11.505 10.739 0.42926 22.9631 0.633142C35.2026 0.837024 44.9148 10.4672 44.9983 24.4561C45.0766 37.7305 35.2316 48.7383 21.8238 48.325C11.1443 47.9962 0.621436 37.646 0.870074 24.5149V24.513ZM21.8358 27.4886C21.8358 28.7799 21.8358 30.0711 21.8358 31.3624C21.8358 34.9643 21.8358 34.9239 25.1413 34.9239C26.066 34.9239 26.2125 34.5565 26.2022 33.6841C26.1699 31.2283 26.1937 28.7689 26.2465 26.3131C26.2806 24.7206 27.0503 23.872 28.3702 23.8206C30.1175 23.7508 30.7391 24.2228 30.8889 26.078C31.0303 27.8156 30.9894 29.5715 30.9945 31.3183C31.0064 35.0929 30.9979 35.069 34.4771 34.9165C35.1635 34.8871 35.315 34.6153 35.3031 33.9504C35.2741 32.2018 35.298 30.4513 35.2946 28.7009C35.2895 26.6786 35.3968 24.649 34.7769 22.6799C34.3647 21.3758 33.6938 20.3325 32.3927 20.0625C30.4308 19.6584 28.4349 19.2709 26.7608 20.9956C26.4679 21.2969 25.986 21.5962 26.0013 20.9093C26.0251 19.8072 25.424 19.9542 24.8143 19.956C24.2353 19.956 23.6512 20.0074 23.0772 19.945C22.1474 19.8421 21.7778 20.1562 21.817 21.2399C21.8954 23.3191 21.8392 25.4039 21.8375 27.4868L21.8358 27.4886ZM19.2012 27.5327C19.2012 26.1974 19.2012 24.8639 19.2012 23.5285C19.2012 19.7503 19.2012 19.7668 15.6845 19.9431C15.0374 19.9762 14.816 20.1819 14.8194 20.8909C14.8432 25.2698 14.8398 29.6487 14.8194 34.0275C14.816 34.6741 15.0152 34.9257 15.6181 34.9018C16.5071 34.8669 17.3977 34.8559 18.285 34.9055C18.9866 34.9459 19.2267 34.6814 19.2114 33.91C19.1688 31.7848 19.1961 29.656 19.1995 27.529L19.2012 27.5327ZM19.4515 15.263C19.4618 13.6504 18.6341 12.6842 16.9226 12.5612C15.6981 12.473 14.38 13.9204 14.351 15.241C14.3238 16.4698 15.7271 18.0054 16.9277 18.0605C18.2118 18.1211 19.4311 16.7692 19.4532 15.263H19.4515Z" fill="#0C4B3B"/>
</svg>
