<?xml version="1.0" encoding="UTF-8"?>
<svg id="Layer_2" data-name="Layer 2" xmlns="http://www.w3.org/2000/svg" viewBox="0 0 1721.4 1096.37">
  <defs>
    <style>
      .cls-1 {
        font-family: Heavitas, Heavitas;
        font-size: 25.05px;
      }

      .cls-1, .cls-2 {
        fill: #1b8464;
      }

      .cls-3 {
        fill: #f1af1d;
      }

      .cls-4 {
        fill: #fff;
      }
    </style>
  </defs>
  <g id="Layer_1-2" data-name="Layer 1">
    <g>
      <g>
        <g>
          <path class="cls-4" d="m1273.27,766.75c-.9,1.7-1.76,3.05-2.51,4.07-4.14-5.57-9.05-20.07-.66-43.47l.57-1.56.36-1.29c.18-.14.43-.27.7-.41,3.57,9.37,4.89,30.46,1.54,42.65Z"/>
          <path class="cls-4" d="m1273.27,766.75c-.9,1.7-1.76,3.05-2.51,4.07-4.14-5.57-9.05-20.07-.66-43.47l.57-1.56.36-1.29c.18-.14.43-.27.7-.41,3.57,9.37,4.89,30.46,1.54,42.65Z"/>
          <path class="cls-4" d="m993.09,766.79l-.29.84-.27.84c-.45,1.4-1.33,2.65-2.08,3.44-2.49-2.94-5.79-13.92-4.14-27.04l.32-2.44.07-2.44c.2-6.45,2.58-12.22,4.59-15.27,5,24.8,3.76,36.59,1.81,42.09Z"/>
          <path class="cls-4" d="m993.09,766.79l-.29.84-.27.84c-.45,1.4-1.33,2.65-2.08,3.44-2.49-2.94-5.79-13.92-4.14-27.04l.32-2.44.07-2.44c.2-6.45,2.58-12.22,4.59-15.27,5,24.8,3.76,36.59,1.81,42.09Z"/>
          <path class="cls-4" d="m991.28,724.71c-2.01,3.05-4.39,8.82-4.59,15.27l-.07,2.44-.32,2.44c-1.65,13.12,1.65,24.1,4.14,27.04.75-.79,1.63-2.04,2.08-3.44l.27-.84.29-.84c1.95-5.5,3.19-17.29-1.81-42.09Zm280.46-.61c-.27.14-.52.27-.7.41l-.36,1.29-.57,1.56c-8.39,23.4-3.48,37.9.66,43.47.75-1.02,1.61-2.38,2.51-4.07,3.35-12.2,2.04-33.28-1.54-42.65Z"/>
          <path class="cls-4" d="m1271.73,724.1c-.27.14-.52.27-.7.41l-.36,1.29-.57,1.56c-8.39,23.4-3.48,37.9.66,43.47.75-1.02,1.61-2.38,2.51-4.07,3.35-12.2,2.04-33.28-1.54-42.65Zm-280.46.61c-2.01,3.05-4.39,8.82-4.59,15.27l-.07,2.44-.32,2.44c-1.65,13.12,1.65,24.1,4.14,27.04.75-.79,1.63-2.04,2.08-3.44l.27-.84.29-.84c1.95-5.5,3.19-17.29-1.81-42.09Z"/>
          <path class="cls-4" d="m1199.78,592.3c-.11.05-.25.11-.36.16l.36-.16Z"/>
          <path class="cls-4" d="m1631.25,574.72c-4.46,1.79-9.91,3.48-15.66,5.27-16.99,5.27-38.13,11.83-54.91,28.22-10.23,9.98-16.4,21.02-19.87,32.04-3.51-11.52-8.78-22.33-16.56-32.04,2.72-2.74,5.23-5.7,7.53-8.82,15.5-21.02,19.84-48.4,11.99-75.35-9.28-35.46-41.25-59.15-80.17-59.15-25.93,0-50.14,10.41-66.41,28.6-14.23,15.91-21.11,36.29-19.53,57.77.48,19.73,6.9,37.9,18.37,52.2-3.85,5.23-6.77,11.18-8.58,17.63-8.6-9.07-19.23-17.58-32.88-24.12-15.14-8.26-31.65-14.12-48.85-17.4,29.48-20.34,48.56-52.79,47.27-86.52-.14-4.05-.59-7.99-1.31-11.74-5.68-30.36-30.32-51.57-60.1-51.7.11-8.17.54-17.11,1-26.31,2.1-43.1,4.28-87.61-21.77-119.97,2.72-2.74,5.23-5.7,7.53-8.82,15.5-21.02,19.84-48.4,11.99-75.35-9.25-35.46-41.23-59.17-80.17-59.17-25.93,0-50.14,10.43-66.41,28.62-14.23,15.88-21.09,36.29-19.5,57.77.48,19.73,6.88,37.9,18.35,52.2-3.85,5.25-6.77,11.18-8.58,17.63-8.6-9.07-19.23-17.58-32.9-24.12-24.62-13.46-52.88-20.55-81.89-20.55-59.69,0-113.36,29.71-141.62,77.04-7.83-13.26-17.83-28.74-34.64-41.79-11.11-8.89-23.53-16.22-36.81-21.86,4.48-7.53,7.58-15.75,9-24.46,2.15-13.21-.36-26.47-6.97-37.56,10.63-16.29,12.85-32.58,12.85-43.38,0-37.29-27.49-77.43-87.88-77.43-22.65,0-45.32,7.24-64.49,20.25-9.05-7.87-19.87-13.69-32.06-17.02l.14-.72c1.79-10.5,6.56-38.37-12.97-61.52-12.9-15.32-31.75-23.08-56.02-23.08-19.35,0-32.08,5.2-39.35,9.55l-38.58,23.17,14.28,32.88c-.02.23-24.01,141.03-24.01,141.03l-.14.97c-.9,5.97-1.83,13.08-1.83,20.59,0,10.72,1.79,20.66,5.36,29.75-13.46,3.71-25.61,9.8-36.43,17.08-17.56-13.58-40.05-20.95-64.49-20.95-18.53,0-36.9,5.14-54.37,14.87-6.04-4.09-12.4-7.06-18.64-9.21,3.96-4.32,7.44-9.32,10.45-15.05,15.79-6.43,28.49-19.03,34.82-35.61,3.05-7.96,4.39-16.36,4.12-24.66,4.55-5.72,8.06-12.31,10.25-19.48,5.79-18.8,1.99-39.39-10.2-55.05l-2.01-2.58-2.33-2.31c-1.2-1.2-2.49-2.42-3.92-3.64-.59-4.39-1.67-8.76-3.26-13.06l-.82-2.17-1.02-2.1c-10.48-21.9-30.7-35.32-54.44-36.25-.66-.54-1.34-1.04-2.01-1.56l-3.26-2.4-3.62-1.88c-9.07-4.71-18.78-7.08-28.83-7.08-17.24,0-33.99,7.29-47.15,20.55-.38.38-.75.77-1.13,1.18-3.66-.61-7.33-.9-10.93-.9-20.39,0-39.21,10.05-50.34,26.9-2.28,3.48-4.23,7.1-5.77,10.79-21.25,10.7-34.28,32.97-33.24,57.02-7.13,9.78-11.03,21.17-11.58,32.79l-.59.45-72.81-16.67c-13.47-3.08-24.43,10.94-18.18,23.27l33.61,66.28c1.02,2.63,2.51,10,3.48,14.93,2.53,12.58,5.38,26.83,12.22,40.52,12.29,24.57,33.85,39.28,59.6,40.84.09.41.18.79.29,1.2,4.77,18.28,11.72,31.86,23.17,45.43l2.15,2.56c6.52,7.74,13.26,15.73,20.64,23.71,4.48,4.87,9.03,8.98,13.06,12.6,2.06,1.88,5.05,4.57,6.54,6.13l-8.12,46.95c-2.94,17.04-9.03,52.52,14.46,80.37,23.33,27.67,59.98,27.67,72.04,27.67,28.01,0,44.39-7.33,51.66-11.7l13.33-8.01c3.12,2.67,6.36,4.98,9.68,6.95-15.61,20.57-24.55,45.75-24.55,73.51,0,13.26,2.4,26.09,6.9,38.04-23.42,22.17-36.88,51.66-36.88,84.4,0,69.03,55.96,119.13,133.05,119.13,61.2,0,116.28-36.34,143.66-90.03,9.39,33.78,26.32,61.23,49.69,81.03-.86,1.09-1.72,2.19-2.58,3.3l-1.18,1.54-1.04,1.63c-40.16,61.97-25.09,109.97-12.54,133.07,21.5,39.55,65.91,64.1,115.92,64.1,60.82,0,112.36-35.68,135.01-93.29,12.49-26.97,17.72-54.6,21.74-79.76l1.67-1.2,1.56-1.31c10.32-8.71,19.37-18.33,27.31-28.35,2.65,2.15,5.34,4.21,8.12,6.2,27.15,19.39,59.53,29.64,93.63,29.64,44.51,0,87.77-17.9,118.7-49.1,8.87-8.94,16.61-18.85,23.1-29.53,5.36,8.53,11.52,16.65,18.42,24.28,31.61,34.91,75.98,54.94,121.75,54.94,34.66,0,68.65-11.4,98.43-33.08,11.36-8.33,21.45-18.19,30.12-29.3,19.69,38.49,59.87,62.04,106.93,62.04,17.51,0,35.16-3.46,51.09-10.05,79.08-31.41,83.65-123.13,85.01-154.52.5-6.88.52-13.46.48-19.48,22.06-5.95,39.3-21.74,47.9-44.71,6-16.09,6.65-32.29,7.22-46.59.2-5.09.52-12.74,1.11-15.52l21.1-65.45c4.92-15.26-10.19-29.34-25.06-23.35l-64.14,25.83Zm-769.26,62.65c-.38-3.89-.86-7.35-1.43-10.34l-.78-4.15c-1.62-8.56-6.05-16.33-12.59-22.08l-3.16-2.78c-8.06-7.08-16.95-12.44-26.41-15.93,13.49-7.47,25.88-16.79,36.79-27.79,8.87-8.94,16.59-18.85,23.1-29.55,5.36,8.53,11.49,16.68,18.42,24.3,12.94,14.3,28.01,26.09,44.46,35.05-31.47,9.75-59.03,28.26-78.4,53.26Zm337.43-44.91c-28.53,13.33-52.47,34.37-68.36,61-7.85-13.28-17.85-28.74-34.66-41.79-7.99-6.38-16.65-11.99-25.86-16.72,15.88-5.54,31.23-13.6,45.57-24.05,10.68-7.83,20.23-17.02,28.56-27.33v2.08l11.45,11.97.5.52c11.16,14.64,25.93,26.32,43.17,34.17l-.36.16Z"/>
          <path class="cls-4" d="m993.09,766.79l-.29.84-.27.84c-.45,1.4-1.33,2.65-2.08,3.44-2.49-2.94-5.79-13.92-4.14-27.04l.32-2.44.07-2.44c.2-6.45,2.58-12.22,4.59-15.27,5,24.8,3.76,36.59,1.81,42.09Z"/>
        </g>
        <g>
          <path class="cls-2" d="m160.37,340.76c1.27.51,2.55-.71,2.1-2.01-12.37-36.39-42.63-63.47-74.77-82.87l.12-.22c22.21,9.28,42.28,22.03,56.58,42.57,6.49-49.98-33.58-43.5-68.39-51.47,13.52,26.66,4.82,85.89,52.3,64.07,1.44-.21,7.63-4.15,7.95-2.78,5.57,8.14,9.68,15.94,14.42,24.57,2.38,4.34,5.52,6.04,9.69,8.14Z"/>
          <g>
            <path class="cls-2" d="m571.66,175.56c10.57-19.63,24.92-30.2,41.02-30.2,23.4,0,36.24,15.85,36.24,42.03,0,8.31-1.01,16.11-2.77,23.66h6.04c16.86-.25,27.68-4.53,27.68-4.53,2.52,1.76,2.01,6.04-.75,8.56-4.28,4.03-17.37,6.04-30.95,6.04h-4.53c-10.32,29.95-34.22,50.08-63.92,50.08-22.65,0-38.25-4.53-44.8-12.58-3.77-4.53-5.54-9.81-5.54-17.36,0-3.77.5-8.06,1.26-13.09l24.16-141.94c2.77-15.85.25-21.64.25-21.64,0,0,3.77-2.27,13.09-2.27,19.38,0,21.64,7.3,18.62,24.92l-15.1,88.34Zm-11.57,74.24c0,3.27.25,5.79.5,7.04,3.27,1.01,7.05,1.76,11.83,1.76,17.87,0,33.47-19.38,40.26-45.3,2.59-13.94,5.79-18.34,3.52-36.24-1.51-8.56-5.54-12.33-12.33-12.33-7.55,0-14.85,6.29-23.4,19.88-7.3,11.32-14.35,26.42-19.13,52.09-1.01,5.54-1.26,9.82-1.26,13.09Z"/>
            <path class="cls-2" d="m772.47,171.78c0,27.68-37.75,39.51-70.72,46.05,2.52,19.13,15.6,33.47,37.75,33.47,17.11,0,23.66-10.57,23.66-10.57,3.02,0,4.53,1.51,4.02,4.53-1.76,10.82-18.62,25.92-43.79,25.92-34.48,0-54.36-24.66-54.36-54.61,0-45.05,34.98-71.22,66.44-71.22,26.93,0,36.99,12.83,36.99,26.42Zm-70.72,34.23c30.7-7.3,43.79-22.9,43.79-38.76,0-6.8-4.03-9.31-9.06-9.31-16.36,0-32.21,20.13-34.73,48.07Z"/>
          </g>
          <path class="cls-2" d="m450.66,775.79c0-13.72,9.39-27.45,24.19-32.14,22.39-7.22,30.34-3.61,52.72-8.31,16.25-3.25,25.28-9.75,25.28-9.75,0,0,7.22,6.14,7.22,18.78,0,18.78-13.36,29.25-31.06,29.25-4.69,0-8.31-.36-11.92-1.08-7.94,52-52.72,98.23-110.51,98.23-44.78,0-82.7-24.19-82.7-68.62,0-32.5,24.19-60.31,65-70.78-22.03-10.48-34.67-30.34-34.67-53.09,0-45.14,40.08-78.37,95.34-78.37,48.03,0,72.58,26.36,72.58,56.34,0,23.11-11.92,40.08-35.03,40.08-15.53,0-22.03-8.66-22.03-8.66,0,0,16.25-14.81,16.25-39.73,0-18.06-9.03-28.17-27.8-28.17-28.17,0-49.48,27.08-49.48,59.22,0,22.03,9.39,44.06,42.25,42.62,0,0,.36,1.44.36,3.97,0,9.03-6.86,13.72-19.14,13.72h-8.31c-28.89,6.86-45.51,28.53-45.51,53.09,0,26.36,11.92,48.39,49.48,48.39,40.09,0,66.45-29.97,75.47-72.95-2.53-.36-5.05-.72-8.3-.72-12.28,0-24.92,5.78-31.06,19.5-5.05,0-8.66-3.97-8.66-10.83Z"/>
          <path class="cls-2" d="m1079.33,442.14c-.27,13.09-2.27,25.5-5.63,34.91-6.94,14.81-15.84,25-25.52,31.15-.05.05-.09.07-.14.07-15.82,10.03-33.76,9.32-48.83.48-12.54-7.33-23.12-20.3-28.87-37.38-4.65-13.8-6.13-30.28-2.95-48.67,1.21-7.14,3.14-14.56,5.86-22.23.02-.07.05-.14.09-.21.02-.07.05-.16.07-.23,2.95-10.28,8.86-18.79,16.48-25.16.07-.05.11-.09.16-.14,10.14-8.4,23.23-12.98,36.31-12.73,11.67.18,23.33,4.21,32.83,12.8.09.07.21.16.3.25.07.07.16.14.23.23,6.5,6.27,11.24,15.36,14.42,25.73,3.89,12.66,5.49,27.29,5.2,41.11Z"/>
          <path class="cls-2" d="m795.64,437.08c-.02.57-.07,1.14-.09,1.72v.11c-.07.92-.14,1.83-.21,2.75.16,12.93-1.53,24.06-4.62,33.42-.23.69-.46,1.35-.71,2.01-1.14,3.25-2.5,6.3-4.03,9.11-.09.18-.18.39-.32.57-6.52,11.97-15.84,19.94-26.26,24.13-.27.14-.55.23-.82.34-.11.05-.23.09-.37.14-.57.23-1.14.41-1.74.62-2.72.89-5.49,1.56-8.31,1.95-17.49,2.59-36.19-4.19-49.19-19.27-1.83-2.13-3.55-4.44-5.1-6.91-.05-.02-.07-.02-.05-.05-8.2-12.7-12.8-29.71-11.13-50.66.23-2.72.55-5.49.98-8.36,1.33-16.64,5.68-30.08,11.95-40.43-.02-.02,0-.02.02-.05,3.53-5.86,7.71-10.74,12.29-14.63.57-.5,1.17-.98,1.76-1.44.32-.27.66-.53,1.01-.78.09-.07.16-.14.25-.18.18-.14.37-.27.53-.39.73-.53,1.46-1.01,2.2-1.49.02,0,.02-.02.05-.05.71-.44,1.44-.89,2.17-1.3,2.24-1.26,4.51-2.33,6.84-3.23.02,0,.07-.02.09-.02.78-.3,1.56-.57,2.36-.82.57-.18,1.17-.37,1.74-.5,8.58-2.4,17.6-2.36,26.14.09.85.21,1.67.48,2.5.76,13.78,4.69,26.14,15.61,33.37,32.28.27.62.55,1.21.8,1.85,0,.02.02.05.02.09,4.3,10.67,6.55,23.58,5.86,38.62Z"/>
          <path class="cls-2" d="m795.64,437.08c-.07-2.13-.21-4.26-.39-6.36-.32-1.99-.6-4.03-.87-6.07-.46-3.16-.87-6.39-1.37-9.59,0-.05-.02-.11-.02-.16-.6-3.91-1.26-7.83-2.17-11.63-.02-.11-.02-.21-.05-.32-.53-2.17-1.12-4.33-1.81-6.43-1.12-3.5-2.52-6.89-4.28-10.07.02-.02,0-.02-.02-.05-2.82-5.13-6.62-9.75-11.79-13.55-6.09-4.67-12.84-7.76-19.78-9.36-2.33-.57-4.69-.94-7.05-1.14-12.36-1.17-24.88,2.04-35.07,8.86-.09.05-.16.11-.25.18-8.2,5.54-14.88,13.44-18.72,23.28-5.97,12.25-9.11,27.24-9.29,42.39-.05,2.7.02,5.38.16,8.06,1.01,18.4,6.36,36.44,16.12,49.56,2.13,2.82,4.44,5.42,6.96,7.74.14.14.3.27.46.41,8.01,7.23,18.06,11.7,30.22,12.02,3.66.09,7.51-.18,11.56-.89,2.68-.46,5.45-1.1,8.31-1.95.3-.09.62-.18.92-.27l.82-.34c.62-.25,1.21-.5,1.81-.78.85-.39,1.69-.8,2.52-1.24.46-.23.94-.48,1.4-.76,8.2-4.53,14.56-10.74,19.34-18.04.09-.16.21-.32.32-.5,2.59-4.03,4.72-8.4,6.41-12.98.25-.66.48-1.33.71-2.01.44-1.35.85-2.74,1.24-4.16,2.03-7.16,3.21-14.71,3.59-22.38.02-.16.02-.32.02-.46.18-3.66.21-7.35.07-11.01Zm283.69,5.06c-.37-13.76-2.93-27.63-5.2-41.11-.02-.14-.05-.3-.07-.43-1.79-10.32-7.07-18.89-14.35-25.29-.07-.09-.16-.16-.23-.23-.09-.09-.21-.18-.3-.25-8.97-7.67-20.83-12.18-32.83-12.8-13.16-.71-26.46,3.23-36.31,12.73-.05.05-.09.09-.16.14-7.28,7.26-12.73,15.93-16.55,25.39-.05.07-.07.14-.09.21-2.84,7.05-4.76,14.56-5.86,22.23-2.4,16.23-1.12,33.26,2.95,48.67.41,1.53.85,3.07,1.3,4.58,5.13,15.75,15.38,26.74,27.56,32.8,15.34,7.65,33.72,7.58,48.83-.48.05,0,.09-.02.14-.07,11.17-6,20.53-16.34,25.52-31.15,4.6-11.31,5.93-23.05,5.63-34.91Zm257.39-26.97c-.02.23-.02.43-.05.66.05-.27.09-.53.16-.8l-.11.14Z"/>
          <path class="cls-2" d="m1079.33,442.14c-.27,13.09-2.27,25.5-5.63,34.91,4.6-11.31,5.93-23.05,5.63-34.91Zm-5.27-41.55c-1.79-10.32-7.07-18.89-14.35-25.29,6.5,6.27,11.24,15.36,14.42,25.73-.02-.14-.05-.3-.07-.43Zm-25.89,107.61c11.17-6,20.53-16.34,25.52-31.15-6.94,14.81-15.84,25-25.52,31.15Zm-58.12-133.45c10.14-8.4,23.23-12.98,36.31-12.73-13.16-.71-26.46,3.23-36.31,12.73Zm-19.71,96.62c.41,1.53.85,3.07,1.3,4.58,5.13,15.75,15.38,26.74,27.56,32.8-12.54-7.33-23.12-20.3-28.87-37.38Zm-2.95-48.67c1.21-7.14,3.14-14.56,5.86-22.23-2.84,7.05-4.76,14.56-5.86,22.23Zm-177.61-24.24c.41,1.46.73,2.95.98,4.49.02.11.02.21.05.32.78,3.8,1.51,7.69,2.17,11.63,0,.05.02.11.02.16.53,3.16.98,6.36,1.37,9.59.57,4.69.98,9.43,1.17,14.15v.11c.11,3.07.14,6.13.02,9.18.18-3.66.21-7.35.07-11.01.69-15.04-1.56-27.95-5.86-38.62Zm-6.5,92.11c-5.06,7.44-11.7,13.71-19.34,18.04-.46.27-.94.53-1.4.76-.82.46-1.67.87-2.52,1.24-.21.11-.41.21-.62.3,10.42-4.19,19.73-12.16,26.26-24.13-.64,1.12-1.33,2.22-2.06,3.3-.11.18-.23.34-.32.5Zm1.37-104.18c-2.82-5.13-6.62-9.75-11.79-13.55-6.09-4.67-12.84-7.76-19.78-9.36-8.54-2.45-17.56-2.5-26.14-.09,5.84-1.56,12.22-2.01,19.09-1.05,1.33.16,2.7.39,4.07.69,1.85.3,3.69.71,5.47,1.21,12.25,3.46,22.71,11.49,29.07,22.16Zm-78.26,116.42c8.01,7.23,18.06,11.7,30.22,12.02-2.01-.16-4.07-.46-6.11-.92-9.61-1.74-17.6-5.68-24.1-11.1Zm3.32-130.66c.34-.27.66-.53,1.01-.78-8.2,5.54-14.88,13.44-18.72,23.28-5.97,12.25-9.11,27.24-9.29,42.39-1.67,20.95,2.93,37.95,11.13,50.66-7.23-12.41-10.62-27.65-10.96-42.6-.16-5.56.14-11.08.82-16.41.43-13.96,4.58-28.5,11.95-40.43-.02-.02,0-.02.02-.05,3.41-5.54,7.53-10.53,12.29-14.63.57-.5,1.17-.98,1.76-1.44Z"/>
          <path class="cls-2" d="m1182.99,236.8c-4.12-36.98,57.92-45.62,66.08-11.17,16.13,52.23-66.35,64.34-66.08,11.17Z"/>
          <path class="cls-4" d="m1079.33,442.14c-.27,13.09-2.27,25.5-5.63,34.91-6.94,14.81-15.84,25-25.52,31.15-.05.05-.09.07-.14.07-15.82,10.03-33.76,9.32-48.83.48-12.54-7.33-23.12-20.3-28.87-37.38-4.65-13.8-6.13-30.28-2.95-48.67,1.21-7.14,3.14-14.56,5.86-22.23.02-.07.05-.14.09-.21.02-.07.05-.16.07-.23,2.95-10.28,8.86-18.79,16.48-25.16.07-.05.11-.09.16-.14,10.14-8.4,23.23-12.98,36.31-12.73,11.67.18,23.33,4.21,32.83,12.8.09.07.21.16.3.25.07.07.16.14.23.23,6.5,6.27,11.24,15.36,14.42,25.73,3.89,12.66,5.49,27.29,5.2,41.11Z"/>
          <path class="cls-4" d="m795.64,437.08c-.02.57-.07,1.14-.09,1.72v.11c-.07.92-.14,1.83-.21,2.75.16,12.93-1.53,24.06-4.62,33.42-.23.69-.46,1.35-.71,2.01-1.14,3.25-2.5,6.3-4.03,9.11-.09.18-.18.39-.32.57-6.52,11.97-15.84,19.94-26.26,24.13-.27.14-.55.23-.82.34-.11.05-.23.09-.37.14-.57.23-1.14.41-1.74.62-2.72.89-5.49,1.56-8.31,1.95-17.49,2.59-36.19-4.19-49.19-19.27-1.83-2.13-3.55-4.44-5.1-6.91-.05-.02-.07-.02-.05-.05-8.2-12.7-12.8-29.71-11.13-50.66.23-2.72.55-5.49.98-8.36,1.33-16.64,5.68-30.08,11.95-40.43-.02-.02,0-.02.02-.05,3.53-5.86,7.71-10.74,12.29-14.63.57-.5,1.17-.98,1.76-1.44.32-.27.66-.53,1.01-.78.09-.07.16-.14.25-.18.18-.14.37-.27.53-.39.73-.53,1.46-1.01,2.2-1.49.02,0,.02-.02.05-.05.71-.44,1.44-.89,2.17-1.3,2.24-1.26,4.51-2.33,6.84-3.23.02,0,.07-.02.09-.02.78-.3,1.56-.57,2.36-.82.57-.18,1.17-.37,1.74-.5,8.58-2.4,17.6-2.36,26.14.09.85.21,1.67.48,2.5.76,13.78,4.69,26.14,15.61,33.37,32.28.27.62.55,1.21.8,1.85,0,.02.02.05.02.09,4.3,10.67,6.55,23.58,5.86,38.62Z"/>
          <path class="cls-2" d="m1310.64,511.08c-.05-1.44-.18-2.82-.43-4.05-1.28-7.14-5.56-10.87-11.9-9.98,0,0-2.38,13.92-15.68,17.33-.78.23-1.58.39-2.45.5-11.47,1.63-22.52-5.45-28.27-30.42-.02-.07-.02-.14-.05-.18-1.35-5.31-2.22-11.13-2.75-17.31v-.11c-3.87-46.29,11.58-113.1-11.45-138.81-12.04-12.68-29.09-12.06-44.16-6.25-2.17.57-2.79,2.11-2.77,4.33-2.45,16.94,5.93,68.28-5.06,76.87-12.36,9.48-27.19,11.17-39.74,1.01-24.26-21.52-30.19-57.8-61.81-72.08-56.06-31.61-136.73-12.98-163.53,48.35-10.21,22.25-39.99,43.15-60.94,21.59-18.54-17.79-24.43-44.59-45.23-60.55-50.2-40.47-136.52-30.61-170.33,26.32-17.67,26.14-19.43,56.84-21.15,87.24,0,0-1.12,11.65-10.67,35.12-12.41,20.21-28.93,32.21-45.83,32.21s-25.04-14.24-20.14-43.22l11.79-69.25c2.45-14.74,4.42-28.98,4.42-39.78,0-30.47-19.64-50.59-50.59-50.59-34.86,0-64.83,33.88-80.55,61.87,0-3.94.5-7.37.5-10.8,0-31.93-20.14-51.07-51.09-51.07-33.9,0-62.88,33.4-79.09,60.41l1.97-11.79c5.91-34.38,1.47-48.62-36.35-48.62-18.18,0-25.55,4.42-25.55,4.42,0,0,4.92,11.29-.48,42.23l-26.03,150.3c-5.91,34.38-1.49,48.62,36.35,48.62,18.18,0,25.52-4.42,25.52-4.42,0,0-4.9-11.29.5-42.23,16.21-90.88,54.53-155.7,78.59-155.7,11.79,0,15.22,9.82,11.31,30.95l-21.63,122.79c-5.88,34.38-1.46,48.62,36.35,48.62,18.18,0,25.55-4.42,25.55-4.42,0,0-4.9-11.29.5-42.23,15.22-83.99,53.04-155.7,78.08-155.7,10.8,0,15.73,7.85,11.79,30.95l-9.32,54.02c-2.95,17.19-7.37,43.22-7.37,55.99,0,36.83,22.59,61.39,59.43,61.39,16.16,0,31.18-5.95,44-14.79,17.72-12.18,31.29-29.8,38.09-44.68.02-.02.05-.05.05-.09,1.53-5.01,2.98-9.93,4.53-14.9.55-1.74,1.12-3.5,1.69-5.27,41.64,132.01,226.69,99.44,225.52-38.16,21.06,9.41,37.47.6,52.67-13.07-10.26,102.64,98.43,174.96,184.68,112.14,30.12-22.09,44.91-59.33,46.19-95.96.11-2.86.16-2.95,2.79-1.97,17.81,7.85,36.05-2.08,49.65-13.62,1.92,31.8-5.59,65.56,6.68,95.73,1.67,4.03,3.73,7.74,6.09,11.15,0,.07.05.11.09.16,7.42,10.6,17.83,18.08,29.64,22.55,7.12,2.13,14.63,2.66,22.02,1.6,34.66-4.94,56.22-33.05,55.33-54.66Zm-515.07-63c0,.14,0,.3-.02.46-.32,9.13-1.69,18.02-4.6,26.26-1.26,3.96-2.93,7.78-4.97,11.4-.09.18-.18.39-.32.57-6.52,11.97-15.84,19.94-26.26,24.13-.27.11-.55.25-.82.34-6.82,2.88-14.28,4.26-21.98,3.59-12.16-.32-22.2-4.78-30.22-12.02-.16-.14-.32-.27-.46-.41-4.83-4.12-8.84-9.11-12.06-14.65-.05-.02-.07-.02-.05-.05-8.2-12.7-12.8-29.71-11.13-50.66.18-15.15,3.32-30.15,9.29-42.39,3.85-9.84,10.53-17.74,18.72-23.28.09-.07.16-.14.25-.18.18-.14.37-.27.53-.39.71-.53,1.44-1.03,2.2-1.49.02,0,.02-.02.05-.05.71-.46,1.44-.89,2.17-1.3,2.17-1.26,4.46-2.33,6.84-3.23.02,0,.07-.02.09-.02.78-.3,1.56-.57,2.36-.82.57-.18,1.17-.37,1.74-.5,8.58-2.4,17.6-2.36,26.14.09,6.94,1.6,13.69,4.69,19.78,9.36,5.17,3.8,8.97,8.42,11.79,13.55.02.02.05.02.02.05,2.22,3.69,3.96,7.69,5.08,11.93,0,.02.02.05.02.09,4.3,10.67,6.55,23.58,5.86,38.62.14,3.66.11,7.35-.07,11.01Zm278.13,28.96c-4.99,14.81-14.35,25.16-25.52,31.15-.05.05-.09.07-.14.07-15.82,10.03-33.76,9.32-48.83.48-12.18-6.07-22.43-17.05-27.56-32.8-.46-1.51-.89-3.04-1.3-4.58-4.65-13.8-6.13-30.28-2.95-48.67,1.1-7.67,3.02-15.18,5.86-22.23.02-.07.05-.14.09-.21.02-.07.05-.16.07-.23,2.95-10.28,8.86-18.79,16.48-25.16.07-.05.11-.09.16-.14,9.84-9.5,23.14-13.44,36.31-12.73,11.67.18,23.33,4.21,32.83,12.8.09.07.21.16.3.25.07.07.16.14.23.23,7.28,6.41,12.57,14.97,14.35,25.29.02.14.05.3.07.43,3.89,12.66,5.49,27.29,5.2,41.11.3,11.86-1.03,23.6-5.63,34.91Z"/>
          <path class="cls-2" d="m213.05,405.34c-11.51-9.51-21.41-17.75-30.38-29.69-13.47-17.93-21.66-40.02-3.06-57.71,8.98-8.54,20.62-13.61,30.99-20.39,12.36-8.08,23.55-19.64,26.3-34.15.9-4.76.86-9.64.79-14.48-.2-12.69-.71-25.37-1.27-38.05-.08-1.83,1.93-11.2,1.21-12.15-1.76-2.31-10.83,3.46-12.86,4.39-.64.29-1.31.61-1.77,1.3-3.26,4.81-.2,12.89.25,18.18.68,8.06.71,16.21-.7,24.19-2.14,12.2-7.92,24.14-17.79,31.63-4.75,3.6-10.25,6.05-15.55,8.77-26.73,13.7-40.91,37.89-32.98,68.17,2.75,10.5,6.04,17.53,12.9,25.64,7.08,8.39,14.1,16.8,21.54,24.88,7.69,8.34,18.84,16.15,25.01,25.39,5.21,7.8,10.43,15.6,15.64,23.4.65.98,1.47,2.04,2.41,1.86.9-.17,1.49-1.42,1.86-2.6,1.39-4.5,1.31-9.6,1.21-14.51-.08-3.78-.19-7.7-1.43-11.04-1.07-2.85-2.86-4.99-4.66-6.98-5.33-5.93-11.5-10.98-17.65-16.06Z"/>
          <path class="cls-3" d="m259.9,241.81c-18.05-1.07-24.23-25.86-28.98-40.65-1.51,13.95.51,28.13-1.58,42.01-1.68,10.37-16.74,15.47-22.52,5.18-8.24-13.03-3.58-28.14-.39-41.94l-.16-.43c-4.53,6.73-9.18,13.39-13.56,20.22-4.59,6.68-7.27,15.18-13.93,20.16-12.49,7.14-17.2-9.93-13.21-19.15,3.06-12.41,11-21.56,19.13-30.91-10.87,4.05-20.89,10.96-32.4,12.99-8.94,1.72-15.82-9.32-10.21-16.5,8.32-12.1,23.21-16.42,36.33-21.03-6.38-.17-12.93-.01-19.11-1.77-8.82-2.16-10.49-15.32-1.93-19,12.66-6.67,28.34-4.04,41.25.13.1-.3.21-.61.31-.91-7.9-6.77-24.34-15.42-16.25-27.67,2.62-3.96,6.78-4.44,11.06-3.53,13.53,2.68,20.96,14.29,28.52,24.76-.09-13.48,15.4-54.1,33.22-44.86,11.61,8.58-.75,22.32-5.25,31.86,9.77-8.89,37.36-31.82,46.4-12.95,4.57,12.3-18.47,22.06-25.84,29.69,14.6-3.57,33.61-5.56,45.2,5.94,3.96,5.09,2.05,12.3-4.1,14.28-14.7,3.68-30.68-.17-45.19,4.81,12.53,1.74,24.78,5.83,33.41,15.53,9.41,8.42,4.95,24.2-9.25,22.65-14.14-3.77-25.61-13.63-38.99-19.46,9.14,11.44,24.66,25.85,20.2,41.52-2.87,5.81-4.63,7.91-12.17,9.03Zm-23.95-56.65c6.75-4.15,20.66-8.86,14.2-18.78-11.98-21.06-46.4-4.13-38.78,17.87,3.5,14.36,24.49.77,24.57.9Z"/>
          <g>
            <path class="cls-2" d="m1667.75,618.48c-33.25,10.28-74.96,10.14-63.07,57.87,12.42-21.95,31.36-36.64,52.78-48.01.05.06.1.13.14.21-30.22,24.09-59.74,50.03-66.78,91.68-3.02,29.14.36,54.82-15.97,79.42-9.72,13.57-22.3,21-39.63,17.66-20.42-2.71-30.44-23.7-29.8-42.6-.99-39.03,2.23-78.38-1.8-117.21-2.44-27.19-29.56-40.18-53.52-29.01-2.12.56-2.73,2.07-2.73,4.25.06,21.56-.19,35.36.08,56.92.06,4.78.95,10.39-3.11,16.28-8.7,12.59-36.11,17.42-48.43,7.43-9.41-7.63-14.98-21.61-20.46-32.05-36.59-79.67-166.29-75.44-200.27,4.58-10.01,21.87-38.33,42.41-58.93,21.22-18.21-17.48-24-43.81-44.43-59.52-49.35-39.72-134.14-30.07-167.38,25.9-28.19,38.23-10,89.29-35.68,127.97-12.23,17.18-23.21,39-43.29,46.87-.49-31.35,3.82-183.32-.85-216.04-25.06-20.77-53.51,1.32-53.61,30.64-20.75-39.41-74.3-50.38-110.11-24.85-37.1,25.4-52.07,71.77-50.25,115.2-2.09,66.08,58.1,144.68,135.64,106.03,10.96-4.67,21.75-11.14,26.14-22.78-1.95,32.37,5.36,29.54-24.24,37.17-27.77,9.83-66.23,12.26-92.97,47.4-22.5,26.58-23.3,68.37-.11,94.43,28.8,29.24,79.71,29.89,112.36,6.71,41.72-30.64,50.31-88.91,56.61-136.32,35.76-16.21,55.64-61.51,64.9-99.32,45.03,143.45,244.13,91.76,220.18-55.01,20.42,16.69,50.33-3.72,59.65-23.65-16.08,41.02-5.38,93.26,23.41,126.2,79.96,84.5,206.47,17.54,198.44-97.2,21.19,8.69,49.96-4.15,57.32-20.63-.6,27.88-.81,57.58-.51,85.27.13,10.95,1.8,21.64,6.55,31.74,21.17,50.93,101.11,49.54,127.55,4.13,20.63-33.54,19.51-69.52,20.35-107.68-.59-15.63,4.77-31.67,11.85-44.34,12.82,2.32,31.94,11.84,41.31-3.68,10.62-19.34,5.57-43.15,13.39-63.47-.37.1-.55.14-.72.19Zm-915.5,133.89c-.34,26.27-10.32,59.87-41.2,62.43-18.45,2.77-36.47-7.41-44.88-23.8-17.32-34.69-16.13-103.1,30.73-112.99,44.41-8.45,58.26,38.93,55.35,74.36Zm294.26,0c-.34,26.27-10.32,59.87-41.2,62.43-18.45,2.77-36.47-7.41-44.88-23.8-17.32-34.69-16.13-103.1,30.73-112.99,44.41-8.45,58.26,38.93,55.35,74.36Zm277.36,0c-.34,26.27-10.32,59.87-41.2,62.43-18.45,2.77-36.47-7.41-44.88-23.8-17.32-34.69-16.13-103.1,30.73-112.99,44.41-8.45,58.26,38.93,55.35,74.36Zm-596.9,238.12c-20.7,11.83-51.09-1.11-43.93-27.75,12.15-35,55.49-44.06,85.72-58.19-4.53,30.97-10.26,70.57-41.79,85.93Z"/>
            <path class="cls-2" d="m1446.88,552.45c.63-11.38,4.26-22.9,16.79-25.85,14.56-4.53,36.36-1.31,39.44,16.34,3.55,14.23-.4,33.73-16.84,37.1-20.78,5.53-39.96-4.38-39.39-27.59Z"/>
          </g>
        </g>
      </g>
      <text class="cls-1" transform="translate(1463.33 885.47) rotate(22.44)"><tspan x="0" y="0">w</tspan></text>
      <text class="cls-1" transform="translate(1493.15 897.25) rotate(5.63)"><tspan x="0" y="0">w</tspan></text>
      <text class="cls-1" transform="translate(1525.24 899.9) rotate(-11.79)"><tspan x="0" y="0">w</tspan></text>
      <text class="cls-1" transform="translate(1553.07 893.1) rotate(-21.53)"><tspan x="0" y="0">.</tspan></text>
      <text class="cls-1" transform="translate(1560.26 890.74) rotate(-30.18)"><tspan x="0" y="0">g</tspan></text>
      <text class="cls-1" transform="translate(1580.62 878.5) rotate(-43.47)"><tspan x="0" y="0">o</tspan></text>
      <text class="cls-1" transform="translate(1597.24 862.32) rotate(-55.73)"><tspan x="0" y="0">o</tspan></text>
      <text class="cls-1" transform="translate(1609.32 843.65) rotate(-63.47)"><tspan x="0" y="0">i</tspan></text>
      <text class="cls-1" transform="translate(1613.37 835.39) rotate(-66.95)"><tspan x="0" y="0">.</tspan></text>
      <text class="cls-1" transform="translate(1616.57 828.99) rotate(-73.61)"><tspan x="0" y="0">m</tspan></text>
      <text class="cls-1" transform="translate(1623.52 803.99) rotate(-81.35)"><tspan x="0" y="0">e</tspan></text>
    </g>
  </g>
</svg>